<svg xmlns="http://www.w3.org/2000/svg" xmlns:xlink="http://www.w3.org/1999/xlink" viewBox="0 0 169.86 148">
  <defs>
    <style>
      .cls-1 {
        fill: url("#linear-gradient");
      }
      .cls-2 {
        fill: #9393bc;

      }
      .cls-3 {
        fill: #f1dbc4;
      }
      .cls-4 {
        fill: #e5c8a6;
      }
      .cls-5 {
        fill: #f15a24;
      }
        }

    </style>
    <linearGradient id="linear-gradient" x1="83.78" y1="41.4" x2="169.86" y2="41.4" gradientUnits="userSpaceOnUse">
      <stop offset="0" stop-color="#524d8a"/>
      <stop offset="0.51" stop-color="#504b89"/>
      <stop offset="0.99" stop-color="#1b1464"/>
      <stop offset="1"/>
    </linearGradient>
  </defs>
  <title>Asset 2</title>
  <g id="Layer_2" data-name="Layer 2">
    <g id="Layer_1-2" data-name="Layer 1">
      <path
        class="cls-1"
        d="M169.62,18a2.44,2.44,0,0,0-1.68-.84,69.22,69.22,0,0,0-10.47-1c-13.05-.51-26.13-.4-39.17.34-7.77.44-15.52,1.1-23.27,1.76,1.79,6.24-1,2.45-5.18,2.78a6.46,6.46,0,0,0-5,4,16.55,16.55,0,0,0-1,6.67c0,4.16.33,8.44,2.16,12.17s5.48,6.81,9.63,6.93c2.07.06,4.29-.58,6.14.37,2.11,1.08,2.79,3.74,4.33,5.54,1.71,2,4.36,2.83,6.87,3.57a2,2,0,0,1,1.24.74c.44.77-.28,1.69-.28,2.57,0,1.49,1.83,2.15,3.3,2.36a92.62,92.62,0,0,0,37-2.1,5.11,5.11,0,0,0-1.06-4.29c7.35-2.77,12.11-10.2,13.87-17.84a72,72,0,0,0,1.24-8.14q.81-7,1.61-14A2.51,2.51,0,0,0,169.62,18ZM94,42a13.91,13.91,0,0,1-2.8-10.15,5.52,5.52,0,0,1,1.14-2.8,2.76,2.76,0,0,1,2.73-1,2.93,2.93,0,0,1,1.85,1.85,8.54,8.54,0,0,1,.44,2.67c.12,1.93,1.59,6.28,2.26,8.12.39,1,0,0,.23,1C100.83,46.23,95.43,44,94,42Z"/>
      <path
        class="cls-2"
        d="M110.34,45.11c-.7-1-1.4-2.09-2-3.19a24.51,24.51,0,0,1-2.83-8.17c-.3-1.91-.26-4.15,1.21-5.4a6.57,6.57,0,0,1,4-1.09l3.59-.18a4.73,4.73,0,0,1,2.84.45c1.39.88,1.48,2.84,1.54,4.49.21,5.38,12.09,17.39,14.93,22,.26.42-12.26-.79-16.36-3.06A20.84,20.84,0,0,1,110.34,45.11Z"/>
      <path class="cls-2" d="M153.61,31.68a6,6,0,0,0,2-3.74,4,4,0,0,0-1.69-3.74c-1.75-1.1-4.17-.32-5.62,1.16a3.47,3.47,0,0,0-1.05,1.9,3.81,3.81,0,0,0,.31,1.82A5.26,5.26,0,0,0,149.75,32a3.6,3.6,0,0,0,4.58-1.33"/>
      <path
        class="cls-3"
        d="M15.76,92A97.68,97.68,0,0,0,30.81,79.66a42.22,42.22,0,0,0,7.09-8.85c3.41-6,4.37-13.09,5.26-20,.8-6.25,2.47-19.77,2.05-19.95s.51-4,2.27-5.51a14.22,14.22,0,0,1,4.07-2.12l17.84-6.93a20.31,20.31,0,0,0,5.84-3c2-1.7,3.29-4.11,4.61-6.41s2.82-4.62,5.11-6,5.56-1.35,7.28.65c2.84,3.3-.38,8.4.36,12.69,4-.22,7,4.22,6.81,8.24s-2.56,7.56-4.85,10.86q-3.76,0-7.53.29L86.18,30a13.4,13.4,0,0,0-3.74,4c5-.16,10.19-.13,15,1.47s9.2,5,10.83,9.79a11.93,11.93,0,0,1-8.67,3.89,5.78,5.78,0,0,1,2.75,7.09,21.42,21.42,0,0,0-1.29,2.8c-.51,2.07.78,4.13,1,6.25.38,4.12-3.41,7.48-7.25,9S86.62,76.52,83.26,79l-2.74,8.39c-1.14,3.48-2.39,7.13-5.15,9.53s-6.78,3.17-10.31,4.51a28.2,28.2,0,0,0-11.22,7.73A55.47,55.47,0,0,0,49,115.84l-9.78,15c-2-3.66-5.78-5.84-9.13-8.29A49.32,49.32,0,0,1,12.48,98.44a7.7,7.7,0,0,1-.54-3.06"/>
      <path
        class="cls-4"
        d="M27.2,120.3c1.68.29,6.94-1.89,8.55-2.46,2.75-1,4.55-4.19,7.46-4.25.51-2.88,1.31-6.16,3.91-7.49a10.27,10.27,0,0,0,1.63-.8,5.55,5.55,0,0,0,1.6-2.68A34.58,34.58,0,0,1,55.1,94.1l3.47,4.06c-.48-2,1.4-3.85,3.26-4.82s4-1.75,5-3.62c.83-1.64.44-3.66,1.12-5.36S70,81.63,70.4,80c.28-1.24-.14-2.55.08-3.8a5.41,5.41,0,0,1,3.32-3.76,21.14,21.14,0,0,1,5.07-1.18,43.66,43.66,0,0,0,21.06-9.89c2.23,2.39,1.62,6.44-.45,9s-5.2,3.92-8.21,5.21l-7.7,3.31a2.76,2.76,0,0,0-1.06.66A3.13,3.13,0,0,0,82,81.23a22.59,22.59,0,0,1-2.76,7.53c-2.1,4.14-4.39,8.49-8.35,10.92-2.65,1.62-5.8,2.22-8.62,3.53-3.94,1.84-7.09,5-10.15,8.09a32.64,32.64,0,0,0-4.41,5.14,53.21,53.21,0,0,0-4.1,8.33c-2.11,5.1.09,6.28-6.69,2.36C32.92,124.81,28.44,123.81,27.2,120.3Z"/>
      <path
        class="cls-4"
        d="M97.33,54a3,3,0,0,1-1.1.35,67.93,67.93,0,0,0-7.5,2L74.91,60.58c3,.7,6.08-.28,9.11-.81,1.73-.3,3.49-.46,5.25-.61l8.91-.78c1.7-.15,3.56-.37,4.72-1.63,0-1.75.22-3.58-.45-5.2-.53-1.3-2.09-2.62-3.35-1.69C98,50.67,98.68,53.06,97.33,54Z"/>
      <path
        class="cls-4"
        d="M100.7,47.93c1.84-.08,3.9-.27,5.08-1.68,1.32-1.61.81-4.15-.57-5.7a12.78,12.78,0,0,0-5.36-3,14,14,0,0,1-5.44-2.94c1.23.91,1.34,2.69,1.29,4.22-.06,1.8-.3,3.83-1.75,4.89-2.09,1.54-5,0-7.51-.48a25,25,0,0,0-6.16.15,27.12,27.12,0,0,1-9.14-1c-3.22-.9-1.85,2.62,0,3.48,2.74,1.27,6.46,1.55,9.43,1.89A127.74,127.74,0,0,0,100.7,47.93Z"/>
      <path
        class="cls-4"
        d="M84.55,8.58c2.08-.72,4.21-1.91,6.35-1.4.72.17,1.47.66,1.52,1.39s-.51,1.22-.66,1.87c-.2.83.27,1.67.27,2.52a1,1,0,0,1-.24.72,1.27,1.27,0,0,1-1,.24,99,99,0,0,0-13.44.71c-.8.09-1.75.14-2.25-.5-.11-1.43,2.22-1.94,2.43-3.36C77.92,8.43,82.29,9.36,84.55,8.58Z"/>
      <path
        class="cls-4"
        d="M75.78,35.3c-4,.33-8-.8-11.82-2.2a15.26,15.26,0,0,0,16.73-4.3c.46-.55.88-1.14,1.31-1.72L84.22,24a2.67,2.67,0,0,0,5.23-.41,3.58,3.58,0,0,1,2.37,1.94,1.77,1.77,0,0,0,.55.85c.81.52,1.56-.75,1.69-1.7l1.32-9.42a11.1,11.1,0,0,1,3.23,8.09,16.28,16.28,0,0,1-1.19,5.26,9.91,9.91,0,0,1-3.42,5,6,6,0,0,1-5.8.39c-1-.48-1.71-2-2.52-2.37-1.4-.6-1.37.06-2.67,1A14.34,14.34,0,0,1,75.78,35.3Z"/><path
        class="cls-5"
        d="M11.52,93.59a4.15,4.15,0,0,1,1.62-.94,1.38,1.38,0,0,1,1.59.71,2.19,2.19,0,0,1,0,1c-.64,4.62,2.24,8.92,5,12.7l3.2,4.42a34.12,34.12,0,0,0,3.24,4,34.24,34.24,0,0,0,4.74,3.81c3.3,2.35,6.82,4.78,10.86,5a3.35,3.35,0,0,0,2.1-.39,1.45,1.45,0,0,0,.53-1.89,2,2,0,0,1,2.47.38l-6,15.15c-.57,1.45-1.43,3.13-3,3.29a2.26,2.26,0,0,0-.86.15,1.65,1.65,0,0,0-.6,1.1,8.25,8.25,0,0,1-5.66,5.69,1.57,1.57,0,0,1-.88.06,1.72,1.72,0,0,1-.64-.47c-3.57-3.67-5.17-8.8-8.14-13-3.2-4.5-7.88-7.75-11.22-12.15a51.6,51.6,0,0,1-4.48-7.5l-4.37-8.34c-1.45-2.78-1.72-5.56,1.2-7.12A61.79,61.79,0,0,0,11.52,93.59Z"/></g>
  </g>
</svg>
