<?xml version="1.0" encoding="utf-8"?>
<!-- Generator: Adobe Illustrator 23.0.6, SVG Export Plug-In . SVG Version: 6.00 Build 0)  -->
<svg version="1.1" id="Layer_1" xmlns="http://www.w3.org/2000/svg" xmlns:xlink="http://www.w3.org/1999/xlink" x="0px" y="0px"
	 viewBox="0 0 221.28 270.92" style="enable-background:new 0 0 221.28 270.92;" xml:space="preserve">
<style type="text/css">
	.st0{fill:#79B4E2;stroke:#000000;stroke-miterlimit:10;}
	.st1{fill:#FFFFFF;stroke:#FFFFFF;stroke-miterlimit:10;}
	.st2{font-family:'Alisha-Regular';}
	.st3{font-size:40.4185px;}
	.st4{fill:#FFFFFF;}
</style>
<path class="st0" d="M180.76,166.69c0,0,28.94-3.57,17.59,25.5s-41.12,33.06-41.12,33.06l-8.83,10.61c0,0,54.21,0.38,62.72-39.38
	s-5.67-48.26-26.24-42.59l-25.53-1.59l2.13,14.35L180.76,166.69z"/>
<path class="st0" d="M13.48,139.72h184.4c0,0-4.26,125.53-92.2,121.99C17.73,258.16,13.48,139.72,13.48,139.72z"/>
<text transform="matrix(1 0 0 1 32.6177 200.7461)" class="st1 st2 st3">Homepage</text>
<g id="XMLID_11_">
	<path class="st4" d="M40.88,132.07c0,0-0.07-0.12-0.2-0.39c-0.07-0.12-0.15-0.3-0.25-0.49c-0.1-0.2-0.2-0.44-0.32-0.69
		c-0.1-0.27-0.22-0.57-0.34-0.89c-0.12-0.34-0.25-0.69-0.37-1.11c-0.25-0.81-0.44-1.75-0.57-2.81c-0.12-1.08-0.17-2.27-0.05-3.57
		s0.39-2.71,0.84-4.14c0.91-2.88,2.66-5.96,5.37-8.6c0.67-0.67,1.4-1.28,2.19-1.87c0.2-0.15,0.39-0.3,0.59-0.44
		c0.05-0.05,0.1-0.07,0.17-0.12l0.15-0.1l0.3-0.2c0.39-0.27,0.84-0.54,1.28-0.79c1.7-1.03,3.5-1.95,5.22-3.01
		c0.86-0.52,1.68-1.08,2.44-1.7c0.2-0.15,0.37-0.32,0.57-0.47l0.15-0.12l0.02-0.02c-0.05,0.05,0,0,0,0l0.07-0.07l0.3-0.3l0.15-0.15
		l0.1-0.12l0.2-0.25c0.15-0.17,0.27-0.37,0.42-0.57c0.52-0.76,0.91-1.65,1.08-2.51c0.05-0.22,0.07-0.44,0.1-0.64
		c0.02-0.1,0-0.22,0-0.32c0-0.1,0-0.22,0-0.32c-0.05-0.2-0.02-0.42-0.1-0.59c-0.02-0.1-0.05-0.2-0.07-0.3
		c-0.05-0.1-0.07-0.17-0.12-0.27L60.15,94l-0.07-0.12c-0.05-0.07-0.1-0.17-0.15-0.25l-0.2-0.22c-0.07-0.07-0.12-0.15-0.2-0.22
		l-0.22-0.2l-0.05-0.05c-0.05-0.05,0.05,0.02,0.02,0l-0.05-0.02l-0.17-0.12c-0.05-0.05-0.12-0.1-0.17-0.12l-0.12-0.07l-0.12-0.07
		c-0.05-0.02-0.1-0.05-0.15-0.07c-0.79-0.42-1.75-0.67-2.78-0.81c-1.03-0.15-2.14-0.17-3.28-0.2c-1.16,0-2.32,0.02-3.5,0.05
		c-2.34,0.07-4.73,0.2-7.17,0.25c-2.41,0.05-4.93,0.05-7.39-0.15c-1.28-0.1-2.54-0.25-3.77-0.47c-1.26-0.22-2.51-0.49-3.75-0.84
		s-2.46-0.79-3.67-1.31s-2.39-1.16-3.5-1.95c-1.13-0.79-2.12-1.63-3.08-2.78c-0.91-1.06-1.65-2.29-2.22-3.6
		c-0.54-1.33-0.89-2.76-0.91-4.26c-0.02-1.48,0.25-3.03,0.86-4.41c0.17-0.34,0.32-0.69,0.52-1.01l0.3-0.47l0.15-0.22l0.07-0.12
		l0.05-0.05c0.05-0.07-0.05,0.05,0.12-0.15c0.17-0.22,0.34-0.42,0.54-0.64l0.02-0.05l0.05-0.05l0.1-0.1l0.2-0.22l0.42-0.42
		c0.54-0.49,1.06-0.91,1.63-1.26c0.27-0.2,0.57-0.34,0.84-0.52l0.42-0.25c0.15-0.07,0.3-0.15,0.42-0.22
		c1.13-0.57,2.32-0.96,3.45-1.28c1.13-0.3,2.27-0.52,3.4-0.67c1.11-0.15,2.22-0.25,3.28-0.25c0.27,0,0.54-0.02,0.79-0.02
		c0.27,0,0.54,0,0.81,0c0.49,0,0.99,0.02,1.5,0.05c2.02,0.1,3.89,0.25,5.69,0.37c1.77,0.12,3.45,0.22,5.03,0.22
		c1.58,0,3.06-0.1,4.41-0.32c0.32-0.05,0.64-0.12,0.96-0.2c0.32-0.07,0.64-0.15,0.94-0.25c0.62-0.17,1.18-0.37,1.75-0.62
		c1.08-0.44,2.05-0.99,2.83-1.58c0.79-0.59,1.4-1.21,1.85-1.8c0.44-0.62,0.74-1.18,0.91-1.68s0.22-0.91,0.27-1.18
		c0.02-0.27,0.02-0.42,0.02-0.42l0.49-0.05c0,0,0.02,0.15,0.07,0.47c0.02,0.3,0.07,0.76,0,1.38c-0.07,0.62-0.27,1.36-0.67,2.14
		c-0.39,0.79-0.96,1.65-1.77,2.46c-1.6,1.63-3.92,3.18-7,4.12c-1.5,0.44-3.13,0.74-4.85,0.94c-1.72,0.17-3.5,0.27-5.35,0.3
		c-1.82,0.05-3.72,0.02-5.59,0.07c-0.44,0-0.96,0.02-1.45,0.05c-0.22,0.02-0.44,0.02-0.69,0.05c-0.22,0.02-0.47,0.02-0.69,0.05
		c-0.94,0.07-1.87,0.22-2.81,0.39c-0.94,0.17-1.85,0.39-2.76,0.69c-0.22,0.07-0.44,0.15-0.67,0.22c-0.22,0.07-0.44,0.17-0.64,0.25
		c-0.42,0.2-0.84,0.37-1.23,0.57l-0.3,0.15l-0.27,0.17c-0.2,0.12-0.37,0.22-0.54,0.34l-0.27,0.2l-0.12,0.1l-0.12,0.1l-0.25,0.2
		c-0.07,0.07-0.17,0.15-0.22,0.2c-0.05,0.05-0.12,0.12-0.17,0.17l-0.1,0.07l-0.05,0.05l-0.02,0.02l-0.02,0.05
		c-0.17,0.22-0.34,0.42-0.54,0.64c0.15-0.2,0.02-0.02,0.05-0.07l-0.02,0.02l-0.05,0.05l-0.07,0.12l-0.15,0.25
		c-0.1,0.17-0.17,0.34-0.25,0.49c-0.32,0.67-0.49,1.43-0.49,2.24c0,0.81,0.15,1.65,0.47,2.49c0.3,0.84,0.76,1.65,1.33,2.41l0.22,0.3
		l0.2,0.25l0.2,0.25c0.02,0.02,0.02,0.05,0.05,0.07l0.07,0.07l0.15,0.15l0.32,0.3l0.07,0.07l0.05,0.05c-0.12-0.1-0.02,0-0.02-0.02
		l0.15,0.12c0.2,0.15,0.37,0.34,0.59,0.49c1.6,1.26,3.6,2.22,5.69,2.93c0.52,0.17,1.06,0.34,1.6,0.49l0.81,0.2
		c0.27,0.07,0.54,0.12,0.84,0.17c1.11,0.22,2.24,0.42,3.38,0.54c4.63,0.52,9.39,0.37,14.17,0.37c1.18,0,2.41,0.02,3.6,0.07
		c1.21,0.05,2.46,0.12,3.72,0.37c1.26,0.25,2.56,0.59,3.77,1.31c0.07,0.05,0.15,0.07,0.22,0.15l0.25,0.17l0.25,0.17
		c0.07,0.05,0.12,0.1,0.17,0.15l0.17,0.12l0.05,0.02c0,0,0.12,0.1,0.1,0.07l0.1,0.1l0.39,0.39c0.12,0.12,0.25,0.27,0.34,0.42
		c0.12,0.15,0.22,0.3,0.32,0.44l0.27,0.49l0.12,0.25c0.02,0.07,0.07,0.17,0.1,0.27l0.2,0.52c0.05,0.17,0.07,0.34,0.12,0.54
		c0.1,0.34,0.1,0.71,0.12,1.06c0,0.17,0,0.34,0,0.52c0,0.17,0,0.34-0.02,0.52c-0.05,0.34-0.1,0.67-0.17,0.99
		c-0.32,1.28-0.91,2.44-1.63,3.43c-0.2,0.25-0.37,0.49-0.59,0.71l-0.32,0.34l-0.17,0.17l-0.15,0.15l-0.3,0.27l-0.07,0.07l-0.07,0.07
		l-0.05,0.02l-0.17,0.15c-0.22,0.17-0.44,0.37-0.67,0.54c-0.91,0.69-1.85,1.26-2.78,1.77c-1.87,1.03-3.7,1.85-5.4,2.76
		c-0.42,0.22-0.81,0.44-1.23,0.69l-0.3,0.17l-0.15,0.1c-0.02,0.02-0.1,0.05-0.12,0.07c-0.2,0.12-0.37,0.25-0.57,0.37
		c-0.74,0.52-1.45,1.03-2.09,1.63c-2.61,2.29-4.36,5.05-5.37,7.71c-0.49,1.33-0.81,2.64-0.99,3.84c-0.17,1.23-0.2,2.37-0.15,3.38
		c0.05,1.03,0.2,1.95,0.39,2.71c0.07,0.39,0.2,0.74,0.27,1.08c0.1,0.32,0.2,0.62,0.3,0.89c0.1,0.25,0.2,0.49,0.27,0.67
		c0.07,0.2,0.17,0.37,0.22,0.49c0.12,0.27,0.17,0.39,0.17,0.39L40.88,132.07z"/>
</g>
<g id="XMLID_1_">
	<path class="st4" d="M163.09,131.78c0,0,0.05-0.12,0.17-0.39c0.05-0.12,0.15-0.3,0.22-0.49c0.07-0.17,0.17-0.42,0.27-0.67
		c0.1-0.27,0.2-0.57,0.3-0.89c0.07-0.34,0.2-0.69,0.27-1.08c0.2-0.76,0.34-1.68,0.39-2.71c0.05-1.01,0.02-2.14-0.15-3.38
		c-0.17-1.21-0.49-2.51-0.99-3.84c-1.01-2.66-2.76-5.42-5.37-7.71c-0.64-0.59-1.36-1.11-2.09-1.63c-0.2-0.12-0.37-0.25-0.57-0.37
		c-0.02-0.02-0.1-0.05-0.12-0.07l-0.15-0.1l-0.3-0.17c-0.42-0.25-0.81-0.47-1.23-0.69c-1.7-0.91-3.52-1.72-5.4-2.76
		c-0.94-0.52-1.87-1.08-2.78-1.77c-0.22-0.17-0.44-0.37-0.67-0.54l-0.17-0.15l-0.05-0.02l-0.07-0.07l-0.07-0.07l-0.3-0.27
		l-0.15-0.15l-0.17-0.17l-0.32-0.34c-0.22-0.22-0.39-0.47-0.59-0.71c-0.71-0.99-1.31-2.14-1.63-3.43c-0.07-0.32-0.12-0.64-0.17-0.99
		c-0.02-0.17-0.02-0.34-0.02-0.52c0-0.17,0-0.34,0-0.52c0.02-0.34,0.02-0.71,0.12-1.06c0.05-0.2,0.07-0.37,0.12-0.54l0.2-0.52
		c0.02-0.1,0.07-0.2,0.1-0.27l0.12-0.25l0.27-0.49c0.1-0.15,0.2-0.3,0.32-0.44c0.1-0.15,0.22-0.3,0.34-0.42l0.39-0.39l0.1-0.1
		c-0.02,0.02,0.1-0.07,0.1-0.07l0.05-0.02l0.17-0.12c0.05-0.05,0.1-0.1,0.17-0.15l0.25-0.17l0.25-0.17c0.07-0.07,0.15-0.1,0.22-0.15
		c1.21-0.71,2.51-1.06,3.77-1.31c1.26-0.25,2.51-0.32,3.72-0.37c1.18-0.05,2.41-0.07,3.6-0.07c4.78,0,9.54,0.15,14.17-0.37
		c1.13-0.12,2.27-0.32,3.38-0.54c0.3-0.05,0.57-0.1,0.84-0.17l0.81-0.2c0.54-0.15,1.08-0.32,1.6-0.49c2.09-0.71,4.09-1.68,5.69-2.93
		c0.22-0.15,0.39-0.34,0.59-0.49l0.15-0.12c0,0.02,0.1-0.07-0.02,0.02l0.05-0.05l0.07-0.07l0.32-0.3l0.15-0.15l0.07-0.07
		c0.02-0.02,0.02-0.05,0.05-0.07l0.2-0.25l0.2-0.25l0.22-0.3c0.57-0.76,1.03-1.58,1.33-2.41c0.32-0.84,0.47-1.68,0.47-2.49
		c0-0.81-0.17-1.58-0.49-2.24c-0.07-0.15-0.15-0.32-0.25-0.49l-0.15-0.25l-0.07-0.12l-0.05-0.05l-0.02-0.02
		c0.02,0.05-0.1-0.12,0.05,0.07c-0.2-0.22-0.37-0.42-0.54-0.64l-0.02-0.05l-0.02-0.02l-0.05-0.05l-0.1-0.07
		c-0.05-0.05-0.12-0.12-0.17-0.17c-0.05-0.05-0.15-0.12-0.22-0.2l-0.25-0.2l-0.12-0.1l-0.12-0.1l-0.27-0.2
		c-0.17-0.12-0.34-0.22-0.54-0.34l-0.27-0.17l-0.3-0.15c-0.39-0.2-0.81-0.37-1.23-0.57c-0.2-0.07-0.42-0.17-0.64-0.25
		c-0.22-0.07-0.44-0.15-0.67-0.22c-0.91-0.3-1.82-0.52-2.76-0.69c-0.94-0.17-1.87-0.32-2.81-0.39c-0.22-0.02-0.47-0.02-0.69-0.05
		c-0.25-0.02-0.47-0.02-0.69-0.05c-0.49-0.02-1.01-0.05-1.45-0.05c-1.87-0.05-3.77-0.02-5.59-0.07c-1.85-0.02-3.62-0.12-5.35-0.3
		c-1.72-0.2-3.35-0.49-4.85-0.94c-3.08-0.94-5.4-2.49-7-4.12c-0.81-0.81-1.38-1.68-1.77-2.46c-0.39-0.79-0.59-1.53-0.67-2.14
		c-0.07-0.62-0.02-1.08,0-1.38c0.05-0.32,0.07-0.47,0.07-0.47l0.49,0.05c0,0,0,0.15,0.02,0.42c0.05,0.27,0.1,0.69,0.27,1.18
		c0.17,0.49,0.47,1.06,0.91,1.68c0.44,0.59,1.06,1.21,1.85,1.8c0.79,0.59,1.75,1.13,2.83,1.58c0.57,0.25,1.13,0.44,1.75,0.62
		c0.3,0.1,0.62,0.17,0.94,0.25s0.64,0.15,0.96,0.2c1.36,0.22,2.83,0.32,4.41,0.32c1.58,0,3.25-0.1,5.03-0.22
		c1.8-0.12,3.67-0.27,5.69-0.37c0.52-0.02,1.01-0.05,1.5-0.05c0.27,0,0.54,0,0.81,0c0.25,0,0.52,0.02,0.79,0.02
		c1.06,0,2.17,0.1,3.28,0.25c1.13,0.15,2.27,0.37,3.4,0.67c1.13,0.32,2.32,0.71,3.45,1.28c0.12,0.07,0.27,0.15,0.42,0.22l0.42,0.25
		c0.27,0.17,0.57,0.32,0.84,0.52c0.57,0.34,1.08,0.76,1.63,1.26l0.42,0.42l0.2,0.22l0.1,0.1l0.05,0.05l0.02,0.05
		c0.2,0.22,0.37,0.42,0.54,0.64c0.17,0.2,0.07,0.07,0.12,0.15l0.05,0.05l0.07,0.12l0.15,0.22l0.3,0.47c0.2,0.32,0.34,0.67,0.52,1.01
		c0.62,1.38,0.89,2.93,0.86,4.41c-0.02,1.5-0.37,2.93-0.91,4.26c-0.57,1.31-1.31,2.54-2.22,3.6c-0.96,1.16-1.95,2-3.08,2.78
		c-1.11,0.79-2.29,1.43-3.5,1.95c-1.21,0.52-2.44,0.96-3.67,1.31c-1.23,0.34-2.49,0.62-3.75,0.84c-1.23,0.22-2.49,0.37-3.77,0.47
		c-2.46,0.2-4.98,0.2-7.39,0.15c-2.44-0.05-4.83-0.17-7.17-0.25c-1.18-0.02-2.34-0.05-3.5-0.05c-1.13,0.02-2.24,0.05-3.28,0.2
		c-1.03,0.15-2,0.39-2.78,0.81c-0.05,0.02-0.1,0.05-0.15,0.07l-0.12,0.07l-0.12,0.07c-0.05,0.02-0.12,0.07-0.17,0.12l-0.17,0.12
		l-0.05,0.02c-0.02,0.02,0.07-0.05,0.02,0l-0.05,0.05l-0.22,0.2c-0.07,0.07-0.12,0.15-0.2,0.22l-0.2,0.22
		c-0.05,0.07-0.1,0.17-0.15,0.25L144.24,94l-0.05,0.12c-0.05,0.1-0.07,0.17-0.12,0.27c-0.02,0.1-0.05,0.2-0.07,0.3
		c-0.07,0.17-0.05,0.39-0.1,0.59c0,0.1,0,0.22,0,0.32c0,0.1-0.02,0.22,0,0.32c0.02,0.2,0.05,0.42,0.1,0.64
		c0.17,0.86,0.57,1.75,1.08,2.51c0.15,0.2,0.27,0.39,0.42,0.57l0.2,0.25l0.1,0.12l0.15,0.15l0.3,0.3l0.07,0.07c0,0,0.05,0.05,0,0
		l0.02,0.02l0.15,0.12c0.2,0.15,0.37,0.32,0.57,0.47c0.76,0.62,1.58,1.18,2.44,1.7c1.72,1.06,3.52,1.97,5.22,3.01
		c0.44,0.25,0.89,0.52,1.28,0.79l0.3,0.2l0.15,0.1c0.07,0.05,0.12,0.07,0.17,0.12c0.2,0.15,0.39,0.3,0.59,0.44
		c0.79,0.59,1.53,1.21,2.19,1.87c2.71,2.64,4.46,5.72,5.37,8.6c0.44,1.43,0.71,2.83,0.84,4.14c0.12,1.31,0.07,2.49-0.05,3.57
		c-0.12,1.06-0.32,2-0.57,2.81c-0.12,0.42-0.25,0.76-0.37,1.11c-0.12,0.32-0.25,0.62-0.34,0.89c-0.12,0.25-0.22,0.49-0.32,0.69
		c-0.1,0.2-0.17,0.37-0.25,0.49c-0.12,0.27-0.2,0.39-0.2,0.39L163.09,131.78z"/>
</g>
<g id="XMLID_4_">
	<path class="st4" d="M108.98,125.65c0,0-0.28-0.08-0.79-0.28c-0.51-0.16-1.3-0.51-2.29-1.02c-0.47-0.28-1.02-0.55-1.58-0.99
		c-0.28-0.2-0.59-0.39-0.87-0.63c-0.28-0.24-0.59-0.47-0.91-0.75c-1.22-1.06-2.48-2.4-3.62-4.14s-2.17-3.82-2.76-6.3
		c-0.08-0.32-0.12-0.63-0.2-0.95c-0.04-0.32-0.12-0.63-0.16-0.99c-0.04-0.67-0.16-1.34-0.16-2.01c0-0.16,0-0.35,0-0.51v-0.28v-0.12
		v-0.16c0.04-0.32,0.04-0.67,0.08-0.99c0-0.32,0.08-0.71,0.16-1.06c0.08-0.35,0.12-0.75,0.2-1.1c0.32-1.46,0.87-2.88,1.54-4.29
		c0.71-1.42,1.58-2.76,2.64-4.06c1.06-1.3,2.32-2.44,3.74-3.51c0.35-0.24,0.71-0.51,1.1-0.75c0.39-0.24,0.79-0.47,1.14-0.67
		c0.39-0.2,0.83-0.39,1.22-0.59s0.87-0.35,1.3-0.51c0.43-0.2,0.87-0.32,1.34-0.43l0.67-0.2l0.67-0.16c0.43-0.08,0.91-0.2,1.34-0.28
		c0.43-0.08,0.87-0.16,1.34-0.24c1.77-0.32,3.51-0.63,5.04-1.18c0.79-0.28,1.46-0.63,2.01-1.06c0.55-0.43,1.02-0.95,1.26-1.58
		l0.08-0.12c0.04-0.08,0,0.04,0,0l0.04-0.08l0.08-0.16c0.04-0.08,0.04-0.08,0.04-0.12l0.04-0.08l0.04-0.12
		c0.04-0.08,0.04-0.16,0.04-0.24c0.08-0.35,0.12-0.71,0.12-1.1s-0.04-0.79-0.08-1.22c-0.04-0.2-0.08-0.43-0.12-0.63l-0.08-0.32
		l-0.04-0.16c0-0.04,0,0.08,0,0l-0.04-0.08c-0.12-0.47-0.24-0.99-0.39-1.42c-0.16-0.39-0.28-0.79-0.43-1.18
		c-0.2-0.39-0.35-0.83-0.55-1.22c-0.24-0.39-0.43-0.79-0.67-1.18c-0.95-1.58-2.13-3.03-3.51-4.29c-2.76-2.52-6.3-4.29-10.05-4.73
		c-3.82-0.47-7.96,0.32-12.37,1.02c-0.55,0.08-1.14,0.16-1.69,0.28l-0.83,0.12l-0.87,0.12c-1.18,0.16-2.36,0.24-3.55,0.28
		c-2.4,0.08-4.96-0.08-7.49-0.79c-1.26-0.35-2.52-0.83-3.74-1.5l-0.83-0.51l-0.08-0.04l-0.12-0.08l-0.24-0.16l-0.47-0.35l-0.24-0.2
		l-0.2-0.16l-0.39-0.35c-0.28-0.24-0.51-0.47-0.75-0.75c-1.93-2.05-3.39-4.61-3.82-7.64c-0.2-1.5-0.12-3.11,0.39-4.69l0.2-0.59
		c0.08-0.2,0.16-0.35,0.24-0.55l0.28-0.55c0.08-0.12-0.04,0.08,0.16-0.32l0.04-0.08l0.12-0.2l0.24-0.35l0.12-0.2l0.2-0.28
		c0.16-0.2,0.28-0.35,0.43-0.55c0.16-0.16,0.32-0.35,0.43-0.51c1.1-1.14,2.4-2.01,3.74-2.6c1.3-0.63,2.64-1.02,3.94-1.3
		c2.6-0.55,5.08-0.67,7.49-0.67c2.29,0,4.57-0.04,6.9-0.04c4.57-0.04,9.14-0.12,13.63-0.16c4.53-0.04,8.98-0.12,13.44-0.12
		c1.1,0,2.25,0,3.23-0.04c1.02-0.04,2.01-0.08,2.99-0.16c1.93-0.2,3.78-0.51,5.36-1.1c1.58-0.55,2.76-1.3,3.43-2.13
		c0.16-0.2,0.32-0.43,0.43-0.67c0.08-0.12,0.12-0.24,0.16-0.35l0.08-0.2l0.04-0.08c0-0.04-0.08,0.32-0.04,0.12l0.04-0.08l0.12-0.39
		l0.04-0.2c0-0.04,0-0.04,0-0.08s0-0.04,0-0.08V35.5v-0.08c0.04-0.28,0.04-0.51,0-0.83c-0.08-1.14-0.59-2.44-1.42-3.51
		c-0.2-0.28-0.43-0.51-0.67-0.79l-0.35-0.35l-0.2-0.16l-0.08-0.08l-0.04-0.04c-0.08-0.08,0.08,0.04,0.04,0l-0.59-0.43
		c-0.12-0.08-0.24-0.16-0.35-0.24l-0.47-0.28l-0.51-0.28c-1.34-0.71-2.92-1.18-4.53-1.5c-0.83-0.16-1.65-0.28-2.52-0.39l-0.63-0.08
		c0,0-0.12,0,0,0h-0.08h-0.16l-0.35-0.04c-0.47-0.04-0.95-0.08-1.38-0.08c-1.65-0.08-3.43-0.12-5.16-0.08
		c-1.73,0.04-3.47,0.12-5.16,0.2c-3.43,0.16-6.78,0.35-10.01,0.35c-0.83,0-1.62,0-2.4-0.04c-0.79,0-1.58-0.08-2.36-0.12
		c-0.39-0.04-0.79-0.08-1.14-0.12c-0.39-0.04-0.79-0.08-1.18-0.12c-0.35-0.04-0.71-0.08-1.06-0.16c-0.39-0.08-0.79-0.12-1.14-0.2
		c-2.96-0.55-5.59-1.5-7.92-2.6c-2.32-1.1-4.33-2.4-5.95-3.78c-0.83-0.71-1.54-1.38-2.17-2.09c-0.63-0.71-1.18-1.42-1.65-2.09
		c-0.95-1.38-1.5-2.64-1.89-3.7c-0.39-1.06-0.55-1.89-0.67-2.48c-0.08-0.55-0.12-0.87-0.12-0.87l0.79-0.16c0,0,0.08,0.28,0.28,0.79
		c0.12,0.24,0.24,0.55,0.39,0.95c0.16,0.35,0.35,0.79,0.63,1.22c0.51,0.91,1.22,1.97,2.21,3.03c0.51,0.55,1.06,1.06,1.73,1.62
		c0.67,0.51,1.38,1.06,2.17,1.58c1.58,1.02,3.51,1.89,5.67,2.6s4.57,1.22,7.17,1.46c0.32,0.04,0.63,0.04,0.95,0.08
		c0.32,0,0.71,0.04,1.06,0.04c0.32,0,0.67,0,0.99,0c0.35,0,0.71,0,1.06,0c1.42-0.04,2.88-0.12,4.37-0.24
		c3.03-0.24,6.23-0.71,9.69-1.14c1.73-0.24,3.51-0.43,5.36-0.59c0.95-0.08,1.85-0.16,2.84-0.2c0.47-0.04,0.95-0.04,1.46-0.08
		c0.51,0,1.02,0,1.54-0.04c0.51,0,0.95,0,1.42,0h0.35h0.16h0.08h0.16l0.79,0.04c1.02,0.08,2.09,0.16,3.15,0.32
		c2.13,0.32,4.37,0.87,6.58,1.89c0.28,0.12,0.55,0.28,0.83,0.39l0.83,0.43l0.91,0.55l0.63,0.43c0,0,0.24,0.16,0.2,0.12l0.12,0.08
		l0.2,0.16l0.39,0.32c0.24,0.2,0.51,0.43,0.75,0.67c0.47,0.47,0.95,0.95,1.38,1.46c0.83,1.06,1.58,2.21,2.13,3.47
		c0.55,1.26,0.99,2.68,1.14,4.18c0.08,0.75,0.08,1.54,0.04,2.29l-0.04,0.28l-0.04,0.35c-0.04,0.24-0.08,0.47-0.12,0.67l-0.08,0.32
		l-0.04,0.2l-0.08,0.39l-0.04,0.08c0.04-0.16-0.08,0.28-0.08,0.32l-0.08,0.28l-0.2,0.55c-0.16,0.35-0.32,0.71-0.47,1.06
		c-0.35,0.71-0.79,1.38-1.26,2.01c-0.99,1.22-2.17,2.25-3.39,3.03c-1.22,0.79-2.48,1.34-3.74,1.77c-1.26,0.43-2.52,0.75-3.74,0.95
		c-1.22,0.24-2.44,0.35-3.66,0.47c-1.22,0.08-2.4,0.16-3.59,0.12c-1.22,0-2.29-0.04-3.39-0.08c-4.41-0.12-8.9-0.28-13.44-0.43
		c-4.53-0.16-9.06-0.32-13.63-0.43c-2.29-0.08-4.57-0.16-6.86-0.2c-2.17-0.04-4.29,0-6.19,0.32c-1.89,0.35-3.55,0.99-4.53,1.97
		c-0.08,0.08-0.08,0.12-0.12,0.16c-0.04,0.04-0.08,0.08-0.12,0.12c-0.04,0.04-0.04,0.04-0.08,0.08l-0.12,0.2l-0.51,0.12l-0.12,0.2
		l-0.08,0.08c0.2-0.32,0.04-0.04,0.08-0.12l-0.12,0.24c-0.04,0.08-0.08,0.16-0.12,0.24l-0.08,0.24c-0.24,0.63-0.32,1.34-0.24,2.09
		c0.12,1.54,0.95,3.19,2.09,4.45c0.16,0.16,0.28,0.32,0.43,0.47l0.24,0.24l0.12,0.12l0.12,0.08l0.2,0.16l0.12,0.08l0.04,0.04
		l0.08,0.04l0.35,0.24l0.2,0.12l0.08,0.04c-0.04,0,0.16,0.12-0.04,0c0.79,0.47,1.62,0.83,2.52,1.1c1.81,0.55,3.78,0.79,5.87,0.79
		c1.02,0,2.09-0.08,3.11-0.16l0.79-0.08l0.83-0.08c0.55-0.08,1.06-0.12,1.62-0.2c2.17-0.28,4.41-0.59,6.7-0.75
		c2.29-0.16,4.65-0.2,7.01,0.2c9.65,1.5,17.02,9.34,18.56,17.77l0.04,0.28l0.04,0.2l0.08,0.39c0.04,0.28,0.08,0.55,0.08,0.83
		c0.04,0.55,0.08,1.14,0.04,1.73c-0.04,0.59-0.12,1.18-0.28,1.77c-0.04,0.16-0.08,0.32-0.12,0.43l-0.08,0.24l-0.08,0.24
		c-0.04,0.08-0.08,0.2-0.08,0.24l-0.08,0.16l-0.04,0.08l-0.08,0.16l-0.12,0.2c-0.55,1.1-1.42,2.05-2.36,2.72
		c-0.95,0.67-1.97,1.14-2.96,1.46c-1.97,0.63-3.86,0.87-5.63,1.1c-0.43,0.08-0.87,0.12-1.3,0.2c-0.43,0.08-0.83,0.12-1.26,0.2
		l-0.63,0.12l-0.59,0.16c-0.39,0.08-0.79,0.16-1.14,0.32c-0.35,0.12-0.75,0.24-1.1,0.39c-0.35,0.16-0.71,0.32-1.06,0.47
		c-0.35,0.2-0.67,0.35-1.02,0.55c-0.35,0.2-0.67,0.43-0.99,0.63c-1.26,0.87-2.4,1.85-3.39,2.96s-1.81,2.29-2.48,3.51
		c-0.63,1.22-1.18,2.52-1.5,3.78c-0.12,0.32-0.16,0.63-0.2,0.95c-0.08,0.32-0.16,0.59-0.16,0.95c-0.04,0.35-0.08,0.67-0.12,0.99
		v0.08c0,0,0,0.08,0,0v0.12v0.24c0,0.16,0,0.32,0,0.47c-0.04,0.63,0.04,1.22,0.04,1.81c0,0.32,0.08,0.59,0.12,0.87
		c0.04,0.28,0.08,0.59,0.12,0.87c0.43,2.25,1.3,4.26,2.29,5.91s2.13,2.99,3.23,4.06c0.28,0.24,0.55,0.51,0.83,0.75
		c0.28,0.24,0.55,0.43,0.79,0.63c0.51,0.39,1.02,0.71,1.46,0.99c0.91,0.51,1.58,0.87,2.13,1.1c0.51,0.2,0.79,0.32,0.79,0.32
		L108.98,125.65z"/>
</g>
</svg>
